# AST/ASF file generated using VICON BodyLanguage
# -----------------------------------------------
:version 1.10
:name VICON
:units
  mass 1.0
  length 0.45
  angle deg
:documentation
   .ast/.asf automatically generated from VICON data using
   VICON BodyBuilder and BodyLanguage model FoxedUp or BRILLIANT.MOD
:root
   order TX TY TZ RX RY RZ
   axis XYZ
   position 0 0 0  
   orientation 0 0 0 
:bonedata
  begin
     id 1 
     name lhipjoint
     direction 0.578396 -0.714046 0.394458 
     length 2.21935 
     axis 0 0 0  XYZ
  end
  begin
     id 2 
     name lfemur
     direction 0.34202 -0.939693 0  
     length 6.39105  
     axis 0 0 20  XYZ
    dof rx ry rz
    limits (-160.0 20.0)
           (-70.0 70.0)
           (-60.0 70.0)
  end
  begin
     id 3 
     name ltibia
     direction 0.34202 -0.939693 0   
     length 6.99037   
     axis 0 0 20   XYZ
    dof rx
    limits (-10.0 170.0)
  end
  begin
     id 4 
     name lfoot
     direction 0.0582372 -0.160005 0.985397   
     length 2.06111   
     axis -90 7.62852e-016 20   XYZ
    dof rx rz
    limits (-45.0 90.0)
           (-70.0 20.0)
  end
  begin
     id 5 
     name ltoes
     direction 1.53556e-011 -4.21875e-011 1   
     length 1.04074   
     axis -90 7.62852e-016 20   XYZ
    dof rx
    limits (-90.0 20.0)
  end
  begin
     id 6 
     name rhipjoint
     direction -0.558179 -0.726269 0.40121   
     length 2.182  
     axis 0 0 0  XYZ 
  end
  begin
     id 7 
     name rfemur
     direction -0.34202 -0.939693 0   
     length 6.51172   
     axis 0 0 -20   XYZ
    dof rx ry rz
    limits (-160.0 20.0)
           (-70.0 70.0)
           (-70.0 60.0)
  end
  begin
     id 8 
     name rtibia
     direction -0.34202 -0.939693 0   
     length 7.02607   
     axis 0 0 -20   XYZ
    dof rx
    limits (-10.0 170.0)
 end
 begin
     id 9 
     name rfoot
     direction -0.0788856 -0.216737 0.973038   
     length 1.96734  
     axis -90 -7.62852e-016 -20   XYZ
    dof rx rz
    limits (-45.0 90.0)
           (-20.0 70.0)
  end
  begin
     id 10 
     name rtoes
     direction -1.53567e-011 -4.21783e-011 1   
     length 0.990825   
     axis -90 -7.62852e-016 -20   XYZ
    dof rx
    limits (-90.0 20.0)
  end
  begin
     id 11 
     name lowerback
     direction 0.00668177 0.999323 -0.0361741   
     length 1.7655   
     axis 0 0 0   XYZ
    dof rx ry rz
    limits (-20.0 45.0)
           (-30.0 30.0)
           (-30.0 30.0)
  end
  begin
     id 12 
     name upperback
     direction -0.00222086 0.99851 0.0545167   
     length 1.74912   
     axis 0 0 0   XYZ
    dof rx ry rz
    limits (-20.0 45.0)
           (-30.0 30.0)
           (-30.0 30.0)
  end
  begin
     id 13 
     name thorax
     direction -0.00733971 0.997496 0.0703443   
     length 1.75715   
     axis 0 0 0   XYZ
    dof rx ry rz
    limits (-20.0 45.0)
           (-30.0 30.0)
           (-30.0 30.0)
  end
  begin
     id 14 
     name lowerneck
     direction 0.0279797 0.994795 0.0979765   
     length 1.46939   
     axis 0 0 0   XYZ
    dof rx ry rz
    limits (-20.0 45.0)
           (-30.0 30.0)
           (-30.0 30.0)
  end
  begin
     id 15 
     name upperneck
     direction 0.00339187 0.976776 -0.214238   
     length 1.48018   
     axis 0 0 0   XYZ
    dof rx ry rz
    limits (-20.0 45.0)
           (-30.0 30.0)
           (-30.0 30.0)
  end
  begin
     id 16
     name head
     direction -0.00263506 0.996603 -0.0823096  
     length 1.4976  
     axis 0 0 0   XYZ
    dof rx ry rz
    limits (-20.0 45.0)
           (-30.0 30.0)
           (-30.0 30.0)
  end
  begin
     id 17 
     name lclavicle
     direction 0.894044 0.44508 -0.0508781  
     length 3.03024  
     axis 0 0 0   XYZ
    dof ry rz
    limits (-20.0 10.0)
           (0.0 20.0)
  end
  begin
     id 18 
     name lhumerus
     direction 1 -4.48961e-011 -2.39475e-018   
     length 4.4661   
     axis 180 -30 -90   XYZ
    dof rx ry rz
    limits (-60.0 90.0)
           (-90.0 90.0)
           (-90.0 90.0)
  end
  begin
     id 19
     name lradius
     direction 1 -4.48961e-011 9.29328e-028   
     length 3.41414   
     axis 180 -30 -90   XYZ
    dof rx
    limits (-10.0 170.0)
  end
  begin
     id 20
     name lwrist
     direction 1 -4.48985e-011 1.53461e-026   
     length 1.70707   
     axis -1.09697e-014 90 90   XYZ
    dof ry
    limits (-180.0 0.0)
 end
  begin
     id 21 
     name lhand
     direction 1 -4.48966e-011 3.06923e-026   
     length 0.328298   
     axis -1.95843e-014 90 90   XYZ
    dof rx rz
    limits (-90.0 90.0)
           (-45.0 45.0)
  end
  begin
     id 22 
     name lfingers
     direction 1 -4.48893e-011 6.13845e-026   
     length 0.264682   
     axis -3.91686e-014 90 90   XYZ
    dof rx
    limits (0.0 90.0)
  end
  begin
     id 23
     name lthumb
     direction 0.707107 -6.34876e-011 0.707107   
     length 0.380032   
     axis -90 45 2.85299e-015   XYZ
    dof rx rz
    limits (-45.0 45.0)
           (-45.0 45.0)
  end
  begin
     id 24 
     name rclavicle
     direction -0.936955 0.347862 -0.0332887   
     length 3.26927  
     axis 0 0 0   XYZ 
    dof ry rz
    limits (-10.0 20.0)
           (-20.0 0.0)
  end
  begin
     id 25 
     name rhumerus
     direction -1 -4.4896e-011 1.78637e-018  
     length 4.40431   
     axis 180 30 90   XYZ
    dof rx ry rz
    limits (-90.0 60.0)
           (-90.0 90.0)
           (-90.0 90.0)
  end
  begin
     id 26 
     name rradius
     direction -1 -4.48955e-011 9.34036e-027   
     length 3.04688   
     axis 180 30 90   XYZ
    dof rx
    limits (-10.0 170.0)
  end
  begin
     id 27 
     name rwrist
     direction -1 -4.49011e-011 1.53461e-026   
     length 1.52344   
     axis -1.09697e-014 -90 -90   XYZ
    dof ry
    limits (-180.0 0.0)
  end
  begin
     id 28
     name rhand
     direction -1 -4.48834e-011 3.06923e-026   
     length 0.500489   
     axis -1.95843e-014 -90 -90   XYZ
    dof rx rz
    limits (-90.0 90.0)
           (-45.0 45.0)
  end
  begin
     id 29
     name rfingers
     direction -1 -4.48967e-011 6.13845e-026   
     length 0.403507   
     axis -3.91686e-014 -90 -90   XYZ
    dof rx
    limits (0.0 90.0)
  end
  begin
     id 30
     name rthumb
     direction -0.707107 -6.34826e-011 0.707107   
     length 0.579358   
     axis -90 -45 -2.85299e-015   XYZ
    dof rx rz
    limits (-45.0 45.0)
           (-45.0 45.0)
  end
:hierarchy
  begin
    root lhipjoint rhipjoint lowerback
    lhipjoint lfemur
    lfemur ltibia
    ltibia lfoot
    lfoot ltoes
    rhipjoint rfemur
    rfemur rtibia
    rtibia rfoot
    rfoot rtoes
    lowerback upperback
    upperback thorax
    thorax lowerneck lclavicle rclavicle
    lowerneck upperneck
    upperneck head
    lclavicle lhumerus
    lhumerus lradius
    lradius lwrist
    lwrist lhand lthumb
    lhand lfingers
    rclavicle rhumerus
    rhumerus rradius
    rradius rwrist
    rwrist rhand rthumb
    rhand rfingers
  end

#!OML:ASF H:\IndianDance\Patient Classification 1\Patient 1\Session 1\dancer.ASF
:FULLY-SPECIFIED
:DEGREES
437
root 11.1031 13.6821 3.63768 204.475 -67.0548 -186.434
lowerback 28.1549 3.95424 8.71353
upperback 2.2879 8.35037 10.7857
thorax -12.8644 3.18262 3.96173
lowerneck -15.3337 -14.2024 -8.05399
upperneck 0.0248754 -18.8302 18.0575
head 5.03994 -8.58757 4.86538
rclavicle -4.13472e-014 -2.09917e-013
rhumerus 39.6652 -39.7179 -82.0765
rradius 26.9086
rwrist -65.8856
rhand -33.7972 -19.8464
rfingers 7.12502
rthumb -6.98377 -49.7111
lclavicle -4.13472e-014 -2.09917e-013
lhumerus -10.7912 -51.3092 16.8022
lradius 120.841
lwrist -29.5018
lhand -62.8585 -21.8876
lfingers 7.12502
lthumb -34.8687 4.69905
rfemur -74.7943 -18.2563 17.9461
rtibia 53.9866
rfoot -23.6391 -18.5953
rtoes -4.22814
lfemur -53.7179 20.9846 -37.7083
ltibia 70.5078
lfoot -31.6882 22.3911
ltoes 10.1331
438
root 11.1231 13.6426 3.6061 203.694 -67.4091 -186.031
lowerback 28.3939 3.97208 8.33315
upperback 2.39416 8.27943 10.8002
thorax -12.9174 3.1708 4.189
lowerneck -15.3051 -14.1499 -8.0406
upperneck 0.105842 -18.7979 18.2202
head 5.0757 -8.56346 4.91547
rclavicle -9.54166e-015 3.81667e-014
rhumerus 38.6682 -38.7405 -81.1941
rradius 27.7663
rwrist -67.2726
rhand -34.9398 -20.2723
rfingers 7.12502
rthumb -8.08668 -50.0976
lclavicle -9.54166e-015 3.81667e-014
lhumerus -10.4976 -51.0353 16.6595
lradius 120.642
lwrist -29.697
lhand -62.9053 -22.5008
lfingers 7.12502
lthumb -34.9131 4.07555
rfemur -75.6737 -18.4704 18.8412
rtibia 58.112
rfoot -23.6211 -17.3878
rtoes -5.87229
lfemur -53.6643 21.1723 -37.1749
ltibia 71.2218
lfoot -31.8868 22.1482
ltoes 10.1782
439
root 11.1422 13.6026 3.5699 202.834 -67.8326 -185.543
lowerback 28.6207 3.96719 7.99836
upperback 2.4774 8.19355 10.8091
thorax -12.9806 3.14931 4.39379
lowerneck -15.269 -14.094 -8.03188
upperneck 0.177209 -18.7609 18.3902
head 5.10801 -8.538 4.96985
rclavicle 6.36111e-014 6.67916e-014
rhumerus 37.5132 -37.7316 -80.2845
rradius 28.7933
rwrist -68.8373
rhand -35.9856 -20.4682
rfingers 7.12502
rthumb -9.09591 -50.2521
lclavicle 6.36111e-014 6.67916e-014
lhumerus -10.2705 -50.7316 16.5853
lradius 120.44
lwrist -29.9058
lhand -63.0129 -23.3651
lfingers 7.12502
lthumb -35.0152 3.1874
rfemur -76.3166 -18.6568 19.76
rtibia 62.1759
rfoot -23.7055 -16.3581
rtoes -6.89652
lfemur -53.6013 21.2875 -36.5511
ltibia 71.9643
lfoot -32.0901 21.9093
ltoes 10.201
440
root 11.1595 13.5625 3.5291 201.882 -68.3054 -184.935
lowerback 28.7983 3.94446 7.72574
upperback 2.55164 8.09543 10.8036
thorax -13.0163 3.11987 4.55838
lowerneck -15.2398 -14.036 -8.02564
upperneck 0.234167 -18.7208 18.5739
head 5.13846 -8.51133 5.02923
rclavicle -2.70347e-014 -1.27222e-014
rhumerus 36.2786 -36.736 -79.436
rradius 29.9809
rwrist -70.4821
rhand -36.9416 -20.391
rfingers 7.12502
rthumb -10.0183 -50.1326
lclavicle -2.70347e-014 -1.27222e-014
lhumerus -10.0786 -50.368 16.5546
lradius 120.233
lwrist -30.1027
lhand -63.207 -24.563
lfingers 7.12502
lthumb -35.1993 1.94632
rfemur -76.7077 -18.8102 20.7175
rtibia 66.0682
rfoot -23.869 -15.4286
rtoes -7.41863
lfemur -53.5595 21.3413 -35.8395
ltibia 72.7508
lfoot -32.2948 21.6591
ltoes 10.1405
441
root 11.175 13.5225 3.48305 200.856 -68.8215 -184.202
lowerback 28.9138 3.90866 7.50122
upperback 2.61242 7.98783 10.7842
thorax -13.0267 3.08499 4.68988
lowerneck -15.2292 -13.9763 -8.02109
upperneck 0.294264 -18.6789 18.7615
head 5.17319 -8.48287 5.08928
rclavicle 4.13472e-014 4.77083e-014
rhumerus 34.989 -35.7702 -78.6739
rradius 31.3189
rwrist -72.1224
rhand -37.8259 -20.0546
rfingers 7.12502
rthumb -10.8713 -49.7533
lclavicle 4.13472e-014 4.77083e-014
lhumerus -9.91687 -49.9345 16.5671
lradius 120.019
lwrist -30.2717
lhand -63.4936 -26.3858
lfingers 7.12502
lthumb -35.471 0.0589097
rfemur -76.8331 -18.9249 21.7112
rtibia 69.6724
rfoot -24.0798 -14.5266
rtoes -7.62969
lfemur -53.5668 21.3359 -35.0409
ltibia 73.5946
lfoot -32.4705 21.3721
ltoes 9.93513
442
root 11.1894 13.4824 3.43108 199.796 -69.3859 -183.353
lowerback 28.9446 3.86341 7.30505
upperback 2.648 7.87109 10.7525
thorax -13.019 3.04683 4.8005
lowerneck -15.2381 -13.9117 -8.01546
upperneck 0.370465 -18.6327 18.9444
head 5.21472 -8.45068 5.14723
rclavicle -7.4743e-014 -6.99722e-014
rhumerus 33.6496 -34.8339 -77.9947
rradius 32.7952
rwrist -73.701
rhand -38.6989 -19.4649
rfingers 7.12502
rthumb -11.7133 -49.1174
lclavicle -7.4743e-014 -6.99722e-014
lhumerus -9.77986 -49.4295 16.6223
lradius 119.802
lwrist -30.4223
lhand -63.8274 -28.3448
lfingers 7.12502
lthumb -35.7874 -1.97635
rfemur -76.703 -18.9879 22.7342
rtibia 72.8715
rfoot -24.2995 -13.5964
rtoes -7.73075
lfemur -53.6765 21.2645 -34.1641
ltibia 74.5107
lfoot -32.5648 21.0286
ltoes 9.48593
443
root 11.2019 13.4427 3.37294 198.731 -69.9939 -182.419
lowerback 28.8846 3.81021 7.12134
upperback 2.65905 7.74223 10.7043
thorax -12.9913 3.00537 4.89494
lowerneck -15.2708 -13.8407 -8.0052
upperneck 0.476825 -18.5815 19.116
head 5.26686 -8.4136 5.20021
rclavicle -6.36111e-015 -9.54166e-015
rhumerus 32.2502 -33.9146 -77.3737
rradius 34.4011
rwrist -75.191
rhand -39.6065 -18.6857
rfingers 7.12502
rthumb -12.5885 -48.2864
lclavicle -6.36111e-015 -9.54166e-015
lhumerus -9.64922 -48.8559 16.7075
lradius 119.582
lwrist -30.5674
lhand -64.2175 -30.7547
lfingers 7.12502
lthumb -36.157 -4.4769
rfemur -76.2782 -18.992 23.7542
rtibia 75.5378
rfoot -24.4987 -12.6256
rtoes -7.91067
lfemur -53.8857 21.1424 -33.2197
ltibia 75.5074
lfoot -32.553 20.5945
ltoes 8.75793
444
root 11.2127 13.4035 3.30813 197.703 -70.6498 -181.443
lowerback 28.7344 3.75171 6.92177
upperback 2.64545 7.59744 10.6405
thorax -12.9485 2.96075 4.99028
lowerneck -15.3355 -13.7618 -7.9919
upperneck 0.627308 -18.5251 19.2737
head 5.33505 -8.3701 5.24709
rclavicle 8.5875e-014 0
rhumerus 30.8011 -33.0007 -76.8007
rradius 36.1165
rwrist -76.5623
rhand -40.5871 -17.7774
rfingers 7.12502
rthumb -13.5337 -47.3176
lclavicle 8.5875e-014 0
lhumerus -9.5202 -48.2139 16.8219
lradius 119.358
lwrist -30.7378
lhand -64.6296 -33.0817
lfingers 7.12502
lthumb -36.5471 -6.90151
rfemur -75.5286 -18.9207 24.7319
rtibia 77.5509
rfoot -24.6934 -11.6095
rtoes -8.01681
lfemur -54.2029 20.9829 -32.2223
ltibia 76.5692
lfoot -32.3761 20.0448
ltoes 7.74395
445
root 11.2222 13.3645 3.23665 196.716 -71.3473 -180.437
lowerback 28.4967 3.69373 6.68667
upperback 2.6102 7.43901 10.5629
thorax -12.8913 2.91509 5.09781
lowerneck -15.44 -13.6738 -7.97236
upperneck 0.832399 -18.4633 19.4134
head 5.42302 -8.31906 5.2857
rclavicle 9.06458e-014 1.08139e-013
rhumerus 29.3109 -32.0842 -76.268
rradius 37.9247
rwrist -77.8019
rhand -41.6487 -16.8071
rfingers 7.12502
rthumb -14.5567 -46.2763
lclavicle 9.06458e-014 1.08139e-013
lhumerus -9.38144 -47.5038 16.9563
lradius 119.13
lwrist -30.9513
lhand -65.0512 -35.1098
lfingers 7.12502
lthumb -36.946 -9.03144
rfemur -74.4373 -18.7438 25.648
rtibia 78.8424
rfoot -24.9765 -10.664
rtoes -7.42158
lfemur -54.65 20.8167 -31.1816
ltibia 77.7142
lfoot -32.0081 19.3457
ltoes 6.54703
446
root 11.2315 13.3409 3.16071 195.81 -72.0749 -179.453
lowerback 28.1929 3.63905 6.39052
upperback 2.55479 7.26581 10.4689
thorax -12.8303 2.86873 5.22768
lowerneck -15.5829 -13.5737 -7.94961
upperneck 1.09605 -18.3924 19.5349
head 5.53161 -8.25838 5.31717
rclavicle -2.06736e-014 2.54444e-014
rhumerus 27.7818 -31.149 -75.7699
rradius 39.8147
rwrist -78.9056
rhand -42.7995 -15.8249
rfingers 7.12502
rthumb -15.6652 -45.2107
lclavicle -2.06736e-014 2.54444e-014
lhumerus -9.24537 -46.7311 17.117
lradius 118.901
lwrist -31.2136
lhand -65.4741 -37.2344
lfingers 7.12502
lthumb -37.346 -11.2602
rfemur -73.0317 -18.4528 26.4693
rtibia 79.3884
rfoot -25.2946 -10.0407
rtoes -6.35059
lfemur -55.1517 20.672 -30.1343
ltibia 78.8465
lfoot -31.4229 18.4906
ltoes 5.24295
447
root 11.2397 13.3122 3.07896 195.003 -72.8138 -178.543
lowerback 27.8601 3.58924 6.02673
upperback 2.48547 7.08051 10.3497
thorax -12.774 2.822 5.37145
lowerneck -15.7598 -13.4604 -7.93225
upperneck 1.417 -18.3106 19.6477
head 5.66164 -8.18714 5.34639
rclavicle 6.04305e-014 3.18055e-014
rhumerus 26.2238 -30.2016 -75.321
rradius 41.7814
rwrist -79.8537
rhand -44.0163 -14.8786
rfingers 7.12502
rthumb -16.8369 -44.1687
lclavicle 6.04305e-014 3.18055e-014
lhumerus -9.10863 -45.8969 17.2892
lradius 118.676
lwrist -31.5105
lhand -65.8902 -38.9399
lfingers 7.12502
lthumb -37.7393 -13.0702
rfemur -71.6109 -18.0533 27.1775
rtibia 79.4565
rfoot -25.5866 -9.74235
rtoes -4.42656
lfemur -55.792 20.588 -29.1026
ltibia 80.0767
lfoot -30.6416 17.4764
ltoes 3.93435
448
root 11.2473 13.2858 2.99302 194.348 -73.5646 -177.796
lowerback 27.5375 3.54048 5.58488
upperback 2.40724 6.87806 10.1984
thorax -12.7341 2.77213 5.528
lowerneck -15.9594 -13.3326 -7.93339
upperneck 1.79235 -18.2149 19.76
head 5.81228 -8.10435 5.3792
rclavicle -1.11319e-014 -7.95139e-014
rhumerus 24.6365 -29.2498 -74.9302
rradius 43.8278
rwrist -80.624
rhand -45.2542 -14.0004
rfingers 7.12502
rthumb -18.0282 -43.1849
lclavicle -1.11319e-014 -7.95139e-014
lhumerus -8.96923 -44.9952 17.4617
lradius 118.458
lwrist -31.8176
lhand -66.2893 -40.8671
lfingers 7.12502
lthumb -38.1162 -15.0996
rfemur -70.2571 -17.6023 27.7608
rtibia 79.1751
rfoot -25.7912 -9.87497
rtoes -2.06099
lfemur -56.5033 20.5732 -28.1166
ltibia 81.3507
lfoot -29.6578 16.3179
ltoes 2.72891
449
root 11.2552 13.2605 2.90353 193.819 -74.3109 -177.217
lowerback 27.2583 3.49558 5.06931
upperback 2.33508 6.66304 10.0157
thorax -12.7081 2.7197 5.69342
lowerneck -16.171 -13.1878 -7.9522
upperneck 2.20556 -18.0992 19.8679
head 5.97535 -8.00893 5.41648
rclavicle 3.49861e-014 9.54166e-015
rhumerus 23.0414 -28.2993 -74.6183
rradius 45.9521
rwrist -81.1822
rhand -46.504 -13.1852
rfingers 7.12502
rthumb -19.2304 -42.2544
lclavicle 3.49861e-014 9.54166e-015
lhumerus -8.83036 -44.0263 17.6345
lradius 118.24
lwrist -32.0824
lhand -66.6649 -42.8643
lfingers 7.12502
lthumb -38.4707 -17.1947
rfemur -69.1019 -17.1375 28.2294
rtibia 78.7872
rfoot -25.9275 -10.3731
rtoes 0.678513
lfemur -57.2733 20.6577 -27.1819
ltibia 82.6903
lfoot -28.5103 15.025
ltoes 1.68208
450
root 11.2629 13.2352 2.81189 193.354 -75.0295 -176.78
lowerback 27.0768 3.45414 4.51735
upperback 2.51247 6.42299 9.53318
thorax -12.9649 2.72715 6.08351
lowerneck -16.3855 -13.0212 -7.98167
upperneck 2.64662 -17.9546 19.9589
head 6.14294 -7.89853 5.45579
rclavicle 6.36111e-015 3.18055e-014
rhumerus 21.4386 -27.3387 -74.3736
rradius 48.1498
rwrist -81.5089
rhand -47.7252 -12.3852
rfingers 7.12502
rthumb -20.4043 -41.3332
lclavicle 6.36111e-015 3.18055e-014
lhumerus -8.68256 -42.9865 17.8118
lradius 118.012
lwrist -32.2763
lhand -67.0115 -44.7712
lfingers 7.12502
lthumb -38.7977 -19.1935
rfemur -68.2045 -16.7075 28.6013
rtibia 78.4688
rfoot -25.9735 -11.143
rtoes 3.35737
lfemur -58.0691 20.8677 -26.2942
ltibia 84.0909
lfoot -27.209 13.6287
ltoes 0.848032
